{
 "cells": [
  {
   "cell_type": "code",
   "execution_count": 88,
   "metadata": {},
   "outputs": [],
   "source": [
    "import mido\n"
   ]
  },
  {
   "cell_type": "code",
   "execution_count": 3,
   "metadata": {},
   "outputs": [],
   "source": [
    "#From https://stackoverflow.com/a/21894086\n",
    "class bidict(dict):\n",
    "    def __init__(self, *args, **kwargs):\n",
    "        super(bidict, self).__init__(*args, **kwargs)\n",
    "        self.inverse = {}\n",
    "        for key, value in self.items():\n",
    "            self.inverse.setdefault(value,[]).append(key) \n",
    "\n",
    "    def __setitem__(self, key, value):\n",
    "        if key in self:\n",
    "            self.inverse[self[key]].remove(key) \n",
    "        super(bidict, self).__setitem__(key, value)\n",
    "        self.inverse.setdefault(value,[]).append(key)        \n",
    "\n",
    "    def __delitem__(self, key):\n",
    "        self.inverse.setdefault(self[key],[]).remove(key)\n",
    "        if self[key] in self.inverse and not self.inverse[self[key]]: \n",
    "            del self.inverse[self[key]]\n",
    "        super(bidict, self).__delitem__(key)"
   ]
  },
  {
   "cell_type": "code",
   "execution_count": 48,
   "metadata": {},
   "outputs": [],
   "source": [
    "import copy\n",
    "\n",
    "#make a function called \"shift_key\" \n",
    "#takes two arguments: degree_map, new_key\n",
    "#return new degree map.\n",
    "\n",
    "def shift_key(input_degree_map,new_key):\n",
    "    new_degree_map = copy.copy(input_degree_map)\n",
    "    for k,v in input_degree_map.items():\n",
    "        new_degree_map[(k-input_degree_map.inverse[new_key][0])%12] = v\n",
    "    return new_degree_map"
   ]
  },
  {
   "cell_type": "code",
   "execution_count": 49,
   "metadata": {},
   "outputs": [],
   "source": [
    "degree_map = bidict({0:'C',1:'C#',2:'D',3:'D#',4:'E',5:'F',6:'F#',7:'G',8:'G#',9:'A',10:'A#',11:'B'})\n",
    "a_map = shift_key(degree_map,'A')"
   ]
  },
  {
   "cell_type": "code",
   "execution_count": 82,
   "metadata": {},
   "outputs": [],
   "source": [
    "#Function that takes a midi int note, and prints jianpu dots:\n",
    "def convert_notes(midi_int_note):\n",
    "    dot_discriminator = (midi_int_note//12)-3\n",
    "    if dot_discriminator >=0:\n",
    "        n_dots = dot_discriminator\n",
    "        for _ in range(n_dots):\n",
    "            print('.')\n",
    "    print(a_map[midi_int_note%12])\n",
    "    if dot_discriminator<0:\n",
    "        n_dots = abs(dot_discriminator)\n",
    "        for _ in range(n_dots):\n",
    "            print('.')"
   ]
  },
  {
   "cell_type": "code",
   "execution_count": 85,
   "metadata": {},
   "outputs": [
    {
     "name": "stdout",
     "output_type": "stream",
     "text": [
      "D#\n",
      ".\n"
     ]
    }
   ],
   "source": [
    "convert_notes(30)"
   ]
  },
  {
   "cell_type": "code",
   "execution_count": 89,
   "metadata": {},
   "outputs": [],
   "source": [
    "midi_file = 'wolves.mid'\n",
    "mid = mido.MidiFile('../wolves.mid')\n",
    "track = mid.tracks[1]"
   ]
  },
  {
   "cell_type": "code",
   "execution_count": 91,
   "metadata": {},
   "outputs": [
    {
     "data": {
      "text/plain": [
       "[<meta message key_signature key='D' time=0>,\n",
       " <message control_change channel=1 control=121 value=0 time=0>,\n",
       " <message program_change channel=1 program=0 time=0>,\n",
       " <message control_change channel=1 control=7 value=100 time=0>,\n",
       " <message control_change channel=1 control=10 value=64 time=0>,\n",
       " <message control_change channel=1 control=91 value=0 time=0>,\n",
       " <message control_change channel=1 control=93 value=0 time=0>,\n",
       " <meta message midi_port port=0 time=0>,\n",
       " <message note_on channel=1 note=62 velocity=96 time=240>,\n",
       " <message note_on channel=1 note=62 velocity=0 time=455>,\n",
       " <message note_on channel=1 note=59 velocity=96 time=25>,\n",
       " <message note_on channel=1 note=59 velocity=0 time=455>,\n",
       " <message note_on channel=1 note=62 velocity=96 time=25>,\n",
       " <message note_on channel=1 note=62 velocity=0 time=911>,\n",
       " <message note_on channel=1 note=66 velocity=96 time=49>,\n",
       " <message note_on channel=1 note=66 velocity=0 time=455>,\n",
       " <message note_on channel=1 note=59 velocity=96 time=25>,\n",
       " <message note_on channel=1 note=59 velocity=0 time=455>,\n",
       " <message note_on channel=1 note=66 velocity=96 time=25>,\n",
       " <message note_on channel=1 note=66 velocity=0 time=911>,\n",
       " <message note_on channel=1 note=59 velocity=96 time=49>,\n",
       " <message note_on channel=1 note=59 velocity=0 time=455>,\n",
       " <message note_on channel=1 note=59 velocity=96 time=25>,\n",
       " <message note_on channel=1 note=59 velocity=0 time=455>,\n",
       " <message note_on channel=1 note=59 velocity=96 time=25>,\n",
       " <message note_on channel=1 note=59 velocity=0 time=911>,\n",
       " <message note_on channel=1 note=59 velocity=96 time=49>,\n",
       " <message note_on channel=1 note=59 velocity=0 time=227>,\n",
       " <message note_on channel=1 note=62 velocity=96 time=13>,\n",
       " <message note_on channel=1 note=62 velocity=0 time=227>,\n",
       " <message note_on channel=1 note=64 velocity=96 time=13>,\n",
       " <message note_on channel=1 note=64 velocity=0 time=227>,\n",
       " <message note_on channel=1 note=64 velocity=96 time=13>,\n",
       " <message note_on channel=1 note=64 velocity=0 time=227>,\n",
       " <message note_on channel=1 note=64 velocity=96 time=13>,\n",
       " <message note_on channel=1 note=64 velocity=0 time=227>,\n",
       " <message note_on channel=1 note=62 velocity=96 time=13>,\n",
       " <message note_on channel=1 note=62 velocity=0 time=227>,\n",
       " <message note_on channel=1 note=61 velocity=96 time=13>,\n",
       " <message note_on channel=1 note=61 velocity=0 time=227>,\n",
       " <message note_on channel=1 note=62 velocity=96 time=253>,\n",
       " <message note_on channel=1 note=62 velocity=0 time=455>,\n",
       " <message note_on channel=1 note=59 velocity=96 time=25>,\n",
       " <message note_on channel=1 note=59 velocity=0 time=455>,\n",
       " <message note_on channel=1 note=62 velocity=96 time=25>,\n",
       " <message note_on channel=1 note=62 velocity=0 time=911>,\n",
       " <message note_on channel=1 note=66 velocity=96 time=49>,\n",
       " <message note_on channel=1 note=66 velocity=0 time=455>,\n",
       " <message note_on channel=1 note=59 velocity=96 time=25>,\n",
       " <message note_on channel=1 note=59 velocity=0 time=455>,\n",
       " <message note_on channel=1 note=66 velocity=96 time=25>,\n",
       " <message note_on channel=1 note=66 velocity=0 time=911>,\n",
       " <message note_on channel=1 note=59 velocity=96 time=49>,\n",
       " <message note_on channel=1 note=59 velocity=0 time=455>,\n",
       " <message note_on channel=1 note=59 velocity=96 time=25>,\n",
       " <message note_on channel=1 note=59 velocity=0 time=455>,\n",
       " <message note_on channel=1 note=59 velocity=96 time=25>,\n",
       " <message note_on channel=1 note=59 velocity=0 time=911>,\n",
       " <message note_on channel=1 note=59 velocity=96 time=49>,\n",
       " <message note_on channel=1 note=59 velocity=0 time=227>,\n",
       " <message note_on channel=1 note=62 velocity=96 time=13>,\n",
       " <message note_on channel=1 note=62 velocity=0 time=227>,\n",
       " <message note_on channel=1 note=64 velocity=96 time=13>,\n",
       " <message note_on channel=1 note=64 velocity=0 time=227>,\n",
       " <message note_on channel=1 note=64 velocity=96 time=13>,\n",
       " <message note_on channel=1 note=64 velocity=0 time=227>,\n",
       " <message note_on channel=1 note=64 velocity=96 time=13>,\n",
       " <message note_on channel=1 note=64 velocity=0 time=227>,\n",
       " <message note_on channel=1 note=62 velocity=96 time=13>,\n",
       " <message note_on channel=1 note=62 velocity=0 time=227>,\n",
       " <message note_on channel=1 note=61 velocity=96 time=13>,\n",
       " <message note_on channel=1 note=61 velocity=0 time=227>,\n",
       " <message note_on channel=1 note=62 velocity=96 time=253>,\n",
       " <message note_on channel=1 note=62 velocity=0 time=455>,\n",
       " <message note_on channel=1 note=59 velocity=96 time=25>,\n",
       " <message note_on channel=1 note=59 velocity=0 time=455>,\n",
       " <message note_on channel=1 note=62 velocity=96 time=25>,\n",
       " <message note_on channel=1 note=62 velocity=0 time=911>,\n",
       " <message note_on channel=1 note=66 velocity=96 time=49>,\n",
       " <message note_on channel=1 note=66 velocity=0 time=455>,\n",
       " <message note_on channel=1 note=59 velocity=96 time=25>,\n",
       " <message note_on channel=1 note=59 velocity=0 time=455>,\n",
       " <message note_on channel=1 note=66 velocity=96 time=25>,\n",
       " <message note_on channel=1 note=66 velocity=0 time=911>,\n",
       " <message note_on channel=1 note=59 velocity=96 time=49>,\n",
       " <message note_on channel=1 note=59 velocity=0 time=455>,\n",
       " <message note_on channel=1 note=59 velocity=96 time=25>,\n",
       " <message note_on channel=1 note=59 velocity=0 time=455>,\n",
       " <message note_on channel=1 note=59 velocity=96 time=25>,\n",
       " <message note_on channel=1 note=59 velocity=0 time=911>,\n",
       " <message note_on channel=1 note=59 velocity=96 time=49>,\n",
       " <message note_on channel=1 note=59 velocity=0 time=227>,\n",
       " <message note_on channel=1 note=62 velocity=96 time=13>,\n",
       " <message note_on channel=1 note=62 velocity=0 time=227>,\n",
       " <message note_on channel=1 note=64 velocity=96 time=13>,\n",
       " <message note_on channel=1 note=64 velocity=0 time=227>,\n",
       " <message note_on channel=1 note=64 velocity=96 time=13>,\n",
       " <message note_on channel=1 note=64 velocity=0 time=227>,\n",
       " <message note_on channel=1 note=64 velocity=96 time=13>,\n",
       " <message note_on channel=1 note=64 velocity=0 time=227>,\n",
       " <message note_on channel=1 note=62 velocity=96 time=13>,\n",
       " <message note_on channel=1 note=62 velocity=0 time=227>,\n",
       " <message note_on channel=1 note=61 velocity=96 time=13>,\n",
       " <message note_on channel=1 note=61 velocity=0 time=227>,\n",
       " <message note_on channel=1 note=62 velocity=96 time=253>,\n",
       " <message note_on channel=1 note=62 velocity=0 time=455>,\n",
       " <message note_on channel=1 note=59 velocity=96 time=25>,\n",
       " <message note_on channel=1 note=59 velocity=0 time=455>,\n",
       " <message note_on channel=1 note=62 velocity=96 time=25>,\n",
       " <message note_on channel=1 note=62 velocity=0 time=911>,\n",
       " <message note_on channel=1 note=66 velocity=96 time=49>,\n",
       " <message note_on channel=1 note=66 velocity=0 time=455>,\n",
       " <message note_on channel=1 note=59 velocity=96 time=25>,\n",
       " <message note_on channel=1 note=59 velocity=0 time=455>,\n",
       " <message note_on channel=1 note=66 velocity=96 time=25>,\n",
       " <message note_on channel=1 note=66 velocity=0 time=911>,\n",
       " <message note_on channel=1 note=59 velocity=96 time=49>,\n",
       " <message note_on channel=1 note=59 velocity=0 time=455>,\n",
       " <message note_on channel=1 note=59 velocity=96 time=25>,\n",
       " <message note_on channel=1 note=59 velocity=0 time=455>,\n",
       " <message note_on channel=1 note=59 velocity=96 time=25>,\n",
       " <message note_on channel=1 note=59 velocity=0 time=911>,\n",
       " <message note_on channel=1 note=59 velocity=96 time=49>,\n",
       " <message note_on channel=1 note=59 velocity=0 time=227>,\n",
       " <message note_on channel=1 note=62 velocity=96 time=13>,\n",
       " <message note_on channel=1 note=62 velocity=0 time=227>,\n",
       " <message note_on channel=1 note=64 velocity=96 time=13>,\n",
       " <message note_on channel=1 note=64 velocity=0 time=227>,\n",
       " <message note_on channel=1 note=64 velocity=96 time=13>,\n",
       " <message note_on channel=1 note=64 velocity=0 time=227>,\n",
       " <message note_on channel=1 note=64 velocity=96 time=13>,\n",
       " <message note_on channel=1 note=64 velocity=0 time=227>,\n",
       " <message note_on channel=1 note=62 velocity=96 time=13>,\n",
       " <message note_on channel=1 note=62 velocity=0 time=227>,\n",
       " <message note_on channel=1 note=61 velocity=96 time=13>,\n",
       " <message note_on channel=1 note=61 velocity=0 time=227>,\n",
       " <message note_on channel=1 note=62 velocity=96 time=253>,\n",
       " <message note_on channel=1 note=62 velocity=0 time=455>,\n",
       " <message note_on channel=1 note=59 velocity=96 time=25>,\n",
       " <message note_on channel=1 note=59 velocity=0 time=455>,\n",
       " <message note_on channel=1 note=62 velocity=96 time=25>,\n",
       " <message note_on channel=1 note=62 velocity=0 time=911>,\n",
       " <message note_on channel=1 note=66 velocity=96 time=49>,\n",
       " <message note_on channel=1 note=66 velocity=0 time=455>,\n",
       " <message note_on channel=1 note=59 velocity=96 time=25>,\n",
       " <message note_on channel=1 note=59 velocity=0 time=455>,\n",
       " <message note_on channel=1 note=66 velocity=96 time=25>,\n",
       " <message note_on channel=1 note=66 velocity=0 time=683>,\n",
       " <message note_on channel=1 note=59 velocity=96 time=37>,\n",
       " <message note_on channel=1 note=59 velocity=0 time=3647>,\n",
       " <message note_on channel=1 note=59 velocity=96 time=193>,\n",
       " <message note_on channel=1 note=59 velocity=0 time=227>,\n",
       " <message note_on channel=1 note=59 velocity=96 time=13>,\n",
       " <message note_on channel=1 note=59 velocity=0 time=227>,\n",
       " <message note_on channel=1 note=59 velocity=96 time=13>,\n",
       " <message note_on channel=1 note=59 velocity=0 time=227>,\n",
       " <message note_on channel=1 note=59 velocity=96 time=13>,\n",
       " <message note_on channel=1 note=59 velocity=0 time=227>,\n",
       " <message note_on channel=1 note=59 velocity=96 time=13>,\n",
       " <message note_on channel=1 note=59 velocity=0 time=227>,\n",
       " <message note_on channel=1 note=59 velocity=96 time=13>,\n",
       " <message note_on channel=1 note=59 velocity=0 time=227>,\n",
       " <message note_on channel=1 note=59 velocity=96 time=13>,\n",
       " <message note_on channel=1 note=59 velocity=0 time=227>,\n",
       " <message note_on channel=1 note=59 velocity=96 time=13>,\n",
       " <message note_on channel=1 note=59 velocity=0 time=227>,\n",
       " <message note_on channel=1 note=61 velocity=96 time=13>,\n",
       " <message note_on channel=1 note=61 velocity=0 time=227>,\n",
       " <message note_on channel=1 note=61 velocity=96 time=13>,\n",
       " <message note_on channel=1 note=61 velocity=0 time=227>,\n",
       " <message note_on channel=1 note=61 velocity=96 time=13>,\n",
       " <message note_on channel=1 note=61 velocity=0 time=227>,\n",
       " <message note_on channel=1 note=61 velocity=96 time=13>,\n",
       " <message note_on channel=1 note=61 velocity=0 time=227>,\n",
       " <message note_on channel=1 note=61 velocity=96 time=13>,\n",
       " <message note_on channel=1 note=61 velocity=0 time=227>,\n",
       " <message note_on channel=1 note=61 velocity=96 time=13>,\n",
       " <message note_on channel=1 note=61 velocity=0 time=227>,\n",
       " <message note_on channel=1 note=61 velocity=96 time=13>,\n",
       " <message note_on channel=1 note=61 velocity=0 time=227>,\n",
       " <message note_on channel=1 note=61 velocity=96 time=13>,\n",
       " <message note_on channel=1 note=61 velocity=0 time=227>,\n",
       " <message note_on channel=1 note=62 velocity=96 time=13>,\n",
       " <message note_on channel=1 note=62 velocity=0 time=227>,\n",
       " <message note_on channel=1 note=62 velocity=96 time=13>,\n",
       " <message note_on channel=1 note=62 velocity=0 time=227>,\n",
       " <message note_on channel=1 note=62 velocity=96 time=13>,\n",
       " <message note_on channel=1 note=62 velocity=0 time=227>,\n",
       " <message note_on channel=1 note=62 velocity=96 time=13>,\n",
       " <message note_on channel=1 note=62 velocity=0 time=227>,\n",
       " <message note_on channel=1 note=62 velocity=96 time=13>,\n",
       " <message note_on channel=1 note=62 velocity=0 time=227>,\n",
       " <message note_on channel=1 note=62 velocity=96 time=13>,\n",
       " <message note_on channel=1 note=62 velocity=0 time=227>,\n",
       " <message note_on channel=1 note=62 velocity=96 time=13>,\n",
       " <message note_on channel=1 note=62 velocity=0 time=227>,\n",
       " <message note_on channel=1 note=62 velocity=96 time=13>,\n",
       " <message note_on channel=1 note=62 velocity=0 time=227>,\n",
       " <message note_on channel=1 note=61 velocity=96 time=13>,\n",
       " <message note_on channel=1 note=61 velocity=0 time=227>,\n",
       " <message note_on channel=1 note=61 velocity=96 time=13>,\n",
       " <message note_on channel=1 note=61 velocity=0 time=227>,\n",
       " <message note_on channel=1 note=61 velocity=96 time=13>,\n",
       " <message note_on channel=1 note=61 velocity=0 time=227>,\n",
       " <message note_on channel=1 note=61 velocity=96 time=13>,\n",
       " <message note_on channel=1 note=61 velocity=0 time=227>,\n",
       " <message note_on channel=1 note=61 velocity=96 time=13>,\n",
       " <message note_on channel=1 note=61 velocity=0 time=227>,\n",
       " <message note_on channel=1 note=61 velocity=96 time=13>,\n",
       " <message note_on channel=1 note=61 velocity=0 time=227>,\n",
       " <message note_on channel=1 note=61 velocity=96 time=13>,\n",
       " <message note_on channel=1 note=61 velocity=0 time=227>,\n",
       " <message note_on channel=1 note=61 velocity=96 time=13>,\n",
       " <message note_on channel=1 note=61 velocity=0 time=227>,\n",
       " <message note_on channel=1 note=59 velocity=96 time=13>,\n",
       " <message note_on channel=1 note=59 velocity=0 time=227>,\n",
       " <message note_on channel=1 note=59 velocity=96 time=13>,\n",
       " <message note_on channel=1 note=59 velocity=0 time=227>,\n",
       " <message note_on channel=1 note=59 velocity=96 time=13>,\n",
       " <message note_on channel=1 note=59 velocity=0 time=227>,\n",
       " <message note_on channel=1 note=59 velocity=96 time=13>,\n",
       " <message note_on channel=1 note=59 velocity=0 time=227>,\n",
       " <message note_on channel=1 note=59 velocity=96 time=13>,\n",
       " <message note_on channel=1 note=59 velocity=0 time=227>,\n",
       " <message note_on channel=1 note=59 velocity=96 time=13>,\n",
       " <message note_on channel=1 note=59 velocity=0 time=227>,\n",
       " <message note_on channel=1 note=59 velocity=96 time=13>,\n",
       " <message note_on channel=1 note=59 velocity=0 time=227>,\n",
       " <message note_on channel=1 note=59 velocity=96 time=13>,\n",
       " <message note_on channel=1 note=59 velocity=0 time=227>,\n",
       " <message note_on channel=1 note=61 velocity=96 time=13>,\n",
       " <message note_on channel=1 note=61 velocity=0 time=227>,\n",
       " <message note_on channel=1 note=61 velocity=96 time=13>,\n",
       " <message note_on channel=1 note=61 velocity=0 time=227>,\n",
       " <message note_on channel=1 note=61 velocity=96 time=13>,\n",
       " <message note_on channel=1 note=61 velocity=0 time=227>,\n",
       " <message note_on channel=1 note=61 velocity=96 time=13>,\n",
       " <message note_on channel=1 note=61 velocity=0 time=227>,\n",
       " <message note_on channel=1 note=61 velocity=96 time=13>,\n",
       " <message note_on channel=1 note=61 velocity=0 time=227>,\n",
       " <message note_on channel=1 note=61 velocity=96 time=13>,\n",
       " <message note_on channel=1 note=61 velocity=0 time=227>,\n",
       " <message note_on channel=1 note=61 velocity=96 time=13>,\n",
       " <message note_on channel=1 note=61 velocity=0 time=227>,\n",
       " <message note_on channel=1 note=61 velocity=96 time=13>,\n",
       " <message note_on channel=1 note=61 velocity=0 time=227>,\n",
       " <message note_on channel=1 note=62 velocity=96 time=13>,\n",
       " <message note_on channel=1 note=62 velocity=0 time=227>,\n",
       " <message note_on channel=1 note=62 velocity=96 time=13>,\n",
       " <message note_on channel=1 note=62 velocity=0 time=227>,\n",
       " <message note_on channel=1 note=62 velocity=96 time=13>,\n",
       " <message note_on channel=1 note=62 velocity=0 time=227>,\n",
       " <message note_on channel=1 note=62 velocity=96 time=13>,\n",
       " <message note_on channel=1 note=62 velocity=0 time=227>,\n",
       " <message note_on channel=1 note=62 velocity=96 time=13>,\n",
       " <message note_on channel=1 note=62 velocity=0 time=227>,\n",
       " <message note_on channel=1 note=62 velocity=96 time=13>,\n",
       " <message note_on channel=1 note=62 velocity=0 time=227>,\n",
       " <message note_on channel=1 note=62 velocity=96 time=13>,\n",
       " <message note_on channel=1 note=62 velocity=0 time=227>,\n",
       " <message note_on channel=1 note=62 velocity=96 time=13>,\n",
       " <message note_on channel=1 note=62 velocity=0 time=227>,\n",
       " <message note_on channel=1 note=66 velocity=96 time=13>,\n",
       " <message note_on channel=1 note=66 velocity=0 time=227>,\n",
       " <message note_on channel=1 note=66 velocity=96 time=13>,\n",
       " <message note_on channel=1 note=66 velocity=0 time=227>,\n",
       " <message note_on channel=1 note=66 velocity=96 time=13>,\n",
       " <message note_on channel=1 note=66 velocity=0 time=227>,\n",
       " <message note_on channel=1 note=66 velocity=96 time=13>,\n",
       " <message note_on channel=1 note=66 velocity=0 time=227>,\n",
       " <message note_on channel=1 note=66 velocity=96 time=13>,\n",
       " <message note_on channel=1 note=66 velocity=0 time=227>,\n",
       " <message note_on channel=1 note=66 velocity=96 time=13>,\n",
       " <message note_on channel=1 note=66 velocity=0 time=227>,\n",
       " <message note_on channel=1 note=66 velocity=96 time=13>,\n",
       " <message note_on channel=1 note=66 velocity=0 time=227>,\n",
       " <message note_on channel=1 note=66 velocity=96 time=13>,\n",
       " <message note_on channel=1 note=66 velocity=0 time=227>,\n",
       " <message note_on channel=1 note=59 velocity=96 time=13>,\n",
       " <message note_on channel=1 note=59 velocity=0 time=227>,\n",
       " <message note_on channel=1 note=59 velocity=96 time=13>,\n",
       " <message note_on channel=1 note=59 velocity=0 time=227>,\n",
       " <message note_on channel=1 note=59 velocity=96 time=13>,\n",
       " <message note_on channel=1 note=59 velocity=0 time=227>,\n",
       " <message note_on channel=1 note=59 velocity=96 time=13>,\n",
       " <message note_on channel=1 note=59 velocity=0 time=227>,\n",
       " <message note_on channel=1 note=59 velocity=96 time=13>,\n",
       " <message note_on channel=1 note=59 velocity=0 time=227>,\n",
       " <message note_on channel=1 note=59 velocity=96 time=13>,\n",
       " <message note_on channel=1 note=59 velocity=0 time=227>,\n",
       " <message note_on channel=1 note=59 velocity=96 time=13>,\n",
       " <message note_on channel=1 note=59 velocity=0 time=227>,\n",
       " <message note_on channel=1 note=59 velocity=96 time=13>,\n",
       " <message note_on channel=1 note=59 velocity=0 time=227>,\n",
       " <message note_on channel=1 note=61 velocity=96 time=13>,\n",
       " <message note_on channel=1 note=61 velocity=0 time=227>,\n",
       " <message note_on channel=1 note=61 velocity=96 time=13>,\n",
       " <message note_on channel=1 note=61 velocity=0 time=227>,\n",
       " <message note_on channel=1 note=61 velocity=96 time=13>,\n",
       " <message note_on channel=1 note=61 velocity=0 time=227>,\n",
       " <message note_on channel=1 note=61 velocity=96 time=13>,\n",
       " <message note_on channel=1 note=61 velocity=0 time=227>,\n",
       " <message note_on channel=1 note=61 velocity=96 time=13>,\n",
       " <message note_on channel=1 note=61 velocity=0 time=227>,\n",
       " <message note_on channel=1 note=61 velocity=96 time=13>,\n",
       " <message note_on channel=1 note=61 velocity=0 time=227>,\n",
       " <message note_on channel=1 note=61 velocity=96 time=13>,\n",
       " <message note_on channel=1 note=61 velocity=0 time=227>,\n",
       " <message note_on channel=1 note=61 velocity=96 time=13>,\n",
       " <message note_on channel=1 note=61 velocity=0 time=227>,\n",
       " <message note_on channel=1 note=62 velocity=96 time=13>,\n",
       " <message note_on channel=1 note=62 velocity=0 time=227>,\n",
       " <message note_on channel=1 note=62 velocity=96 time=13>,\n",
       " <message note_on channel=1 note=62 velocity=0 time=227>,\n",
       " <message note_on channel=1 note=62 velocity=96 time=13>,\n",
       " <message note_on channel=1 note=62 velocity=0 time=227>,\n",
       " <message note_on channel=1 note=62 velocity=96 time=13>,\n",
       " <message note_on channel=1 note=62 velocity=0 time=227>,\n",
       " <message note_on channel=1 note=62 velocity=96 time=13>,\n",
       " <message note_on channel=1 note=62 velocity=0 time=227>,\n",
       " <message note_on channel=1 note=62 velocity=96 time=13>,\n",
       " <message note_on channel=1 note=62 velocity=0 time=227>,\n",
       " <message note_on channel=1 note=62 velocity=96 time=13>,\n",
       " <message note_on channel=1 note=62 velocity=0 time=227>,\n",
       " <message note_on channel=1 note=62 velocity=96 time=13>,\n",
       " <message note_on channel=1 note=62 velocity=0 time=227>,\n",
       " <message note_on channel=1 note=61 velocity=96 time=13>,\n",
       " <message note_on channel=1 note=61 velocity=0 time=227>,\n",
       " <message note_on channel=1 note=61 velocity=96 time=13>,\n",
       " <message note_on channel=1 note=61 velocity=0 time=227>,\n",
       " <message note_on channel=1 note=61 velocity=96 time=13>,\n",
       " <message note_on channel=1 note=61 velocity=0 time=227>,\n",
       " <message note_on channel=1 note=61 velocity=96 time=13>,\n",
       " <message note_on channel=1 note=61 velocity=0 time=227>,\n",
       " <message note_on channel=1 note=61 velocity=96 time=13>,\n",
       " <message note_on channel=1 note=61 velocity=0 time=227>,\n",
       " <message note_on channel=1 note=61 velocity=96 time=13>,\n",
       " <message note_on channel=1 note=61 velocity=0 time=227>,\n",
       " <message note_on channel=1 note=61 velocity=96 time=13>,\n",
       " <message note_on channel=1 note=61 velocity=0 time=227>,\n",
       " <message note_on channel=1 note=61 velocity=96 time=13>,\n",
       " <message note_on channel=1 note=61 velocity=0 time=227>,\n",
       " <message note_on channel=1 note=59 velocity=96 time=13>,\n",
       " <message note_on channel=1 note=59 velocity=0 time=227>,\n",
       " <message note_on channel=1 note=59 velocity=96 time=13>,\n",
       " <message note_on channel=1 note=59 velocity=0 time=227>,\n",
       " <message note_on channel=1 note=59 velocity=96 time=13>,\n",
       " <message note_on channel=1 note=59 velocity=0 time=227>,\n",
       " <message note_on channel=1 note=59 velocity=96 time=13>,\n",
       " <message note_on channel=1 note=59 velocity=0 time=227>,\n",
       " <message note_on channel=1 note=59 velocity=96 time=13>,\n",
       " <message note_on channel=1 note=59 velocity=0 time=227>,\n",
       " <message note_on channel=1 note=59 velocity=96 time=13>,\n",
       " <message note_on channel=1 note=59 velocity=0 time=227>,\n",
       " <message note_on channel=1 note=59 velocity=96 time=13>,\n",
       " <message note_on channel=1 note=59 velocity=0 time=227>,\n",
       " <message note_on channel=1 note=59 velocity=96 time=13>,\n",
       " <message note_on channel=1 note=59 velocity=0 time=227>,\n",
       " <message note_on channel=1 note=61 velocity=96 time=13>,\n",
       " <message note_on channel=1 note=61 velocity=0 time=227>,\n",
       " <message note_on channel=1 note=61 velocity=96 time=13>,\n",
       " <message note_on channel=1 note=61 velocity=0 time=227>,\n",
       " <message note_on channel=1 note=61 velocity=96 time=13>,\n",
       " <message note_on channel=1 note=61 velocity=0 time=227>,\n",
       " <message note_on channel=1 note=61 velocity=96 time=13>,\n",
       " <message note_on channel=1 note=61 velocity=0 time=227>,\n",
       " <message note_on channel=1 note=61 velocity=96 time=13>,\n",
       " <message note_on channel=1 note=61 velocity=0 time=227>,\n",
       " <message note_on channel=1 note=61 velocity=96 time=13>,\n",
       " <message note_on channel=1 note=61 velocity=0 time=227>,\n",
       " <message note_on channel=1 note=61 velocity=96 time=13>,\n",
       " <message note_on channel=1 note=61 velocity=0 time=227>,\n",
       " <message note_on channel=1 note=61 velocity=96 time=13>,\n",
       " <message note_on channel=1 note=61 velocity=0 time=227>,\n",
       " <message note_on channel=1 note=62 velocity=96 time=13>,\n",
       " <message note_on channel=1 note=62 velocity=0 time=227>,\n",
       " <message note_on channel=1 note=62 velocity=96 time=13>,\n",
       " <message note_on channel=1 note=62 velocity=0 time=227>,\n",
       " <message note_on channel=1 note=62 velocity=96 time=13>,\n",
       " <message note_on channel=1 note=62 velocity=0 time=227>,\n",
       " <message note_on channel=1 note=62 velocity=96 time=13>,\n",
       " <message note_on channel=1 note=62 velocity=0 time=227>,\n",
       " <message note_on channel=1 note=62 velocity=96 time=13>,\n",
       " <message note_on channel=1 note=62 velocity=0 time=227>,\n",
       " <message note_on channel=1 note=62 velocity=96 time=13>,\n",
       " <message note_on channel=1 note=62 velocity=0 time=227>,\n",
       " <message note_on channel=1 note=62 velocity=96 time=13>,\n",
       " <message note_on channel=1 note=62 velocity=0 time=227>,\n",
       " <message note_on channel=1 note=62 velocity=96 time=13>,\n",
       " <message note_on channel=1 note=62 velocity=0 time=227>,\n",
       " <message note_on channel=1 note=55 velocity=96 time=1933>,\n",
       " <message note_on channel=1 note=55 velocity=0 time=227>,\n",
       " <message note_on channel=1 note=62 velocity=96 time=13>,\n",
       " <message note_on channel=1 note=62 velocity=0 time=227>,\n",
       " <message note_on channel=1 note=57 velocity=96 time=13>,\n",
       " <message note_on channel=1 note=57 velocity=0 time=227>,\n",
       " <message note_on channel=1 note=62 velocity=96 time=13>,\n",
       " <message note_on channel=1 note=62 velocity=0 time=227>,\n",
       " <message note_on channel=1 note=59 velocity=96 time=13>,\n",
       " <message note_on channel=1 note=59 velocity=0 time=227>,\n",
       " <message note_on channel=1 note=57 velocity=96 time=13>,\n",
       " <message note_on channel=1 note=57 velocity=0 time=227>,\n",
       " <message note_on channel=1 note=62 velocity=96 time=13>,\n",
       " <message note_on channel=1 note=62 velocity=0 time=227>,\n",
       " <message note_on channel=1 note=57 velocity=96 time=13>,\n",
       " <message note_on channel=1 note=57 velocity=0 time=227>,\n",
       " <message note_on channel=1 note=57 velocity=96 time=13>,\n",
       " <message note_on channel=1 note=57 velocity=0 time=227>,\n",
       " <message note_on channel=1 note=62 velocity=96 time=13>,\n",
       " <message note_on channel=1 note=62 velocity=0 time=227>,\n",
       " <message note_on channel=1 note=61 velocity=96 time=13>,\n",
       " <message note_on channel=1 note=61 velocity=0 time=227>,\n",
       " <message note_on channel=1 note=62 velocity=96 time=13>,\n",
       " <message note_on channel=1 note=62 velocity=0 time=227>,\n",
       " <message note_on channel=1 note=59 velocity=96 time=13>,\n",
       " <message note_on channel=1 note=59 velocity=0 time=227>,\n",
       " <message note_on channel=1 note=61 velocity=96 time=13>,\n",
       " <message note_on channel=1 note=61 velocity=0 time=227>,\n",
       " <message note_on channel=1 note=57 velocity=96 time=13>,\n",
       " <message note_on channel=1 note=57 velocity=0 time=227>,\n",
       " <message note_on channel=1 note=61 velocity=96 time=13>,\n",
       " <message note_on channel=1 note=61 velocity=0 time=227>,\n",
       " <message note_on channel=1 note=59 velocity=96 time=13>,\n",
       " <message note_on channel=1 note=59 velocity=0 time=227>,\n",
       " <message note_on channel=1 note=62 velocity=96 time=13>,\n",
       " <message note_on channel=1 note=62 velocity=0 time=227>,\n",
       " <message note_on channel=1 note=61 velocity=96 time=13>,\n",
       " <message note_on channel=1 note=61 velocity=0 time=227>,\n",
       " <message note_on channel=1 note=59 velocity=96 time=13>,\n",
       " <message note_on channel=1 note=59 velocity=0 time=227>,\n",
       " <message note_on channel=1 note=61 velocity=96 time=13>,\n",
       " <message note_on channel=1 note=61 velocity=0 time=227>,\n",
       " <message note_on channel=1 note=59 velocity=96 time=13>,\n",
       " <message note_on channel=1 note=59 velocity=0 time=227>,\n",
       " <message note_on channel=1 note=59 velocity=96 time=13>,\n",
       " <message note_on channel=1 note=59 velocity=0 time=227>,\n",
       " <message note_on channel=1 note=61 velocity=96 time=13>,\n",
       " <message note_on channel=1 note=61 velocity=0 time=227>,\n",
       " <message note_on channel=1 note=62 velocity=96 time=13>,\n",
       " <message note_on channel=1 note=62 velocity=0 time=227>,\n",
       " <message note_on channel=1 note=66 velocity=96 time=13>,\n",
       " <message note_on channel=1 note=66 velocity=0 time=227>,\n",
       " <message note_on channel=1 note=62 velocity=96 time=13>,\n",
       " <message note_on channel=1 note=62 velocity=0 time=227>,\n",
       " <message note_on channel=1 note=69 velocity=96 time=13>,\n",
       " <message note_on channel=1 note=69 velocity=0 time=227>,\n",
       " <message note_on channel=1 note=67 velocity=96 time=13>,\n",
       " <message note_on channel=1 note=67 velocity=0 time=227>,\n",
       " <message note_on channel=1 note=66 velocity=96 time=13>,\n",
       " <message note_on channel=1 note=66 velocity=0 time=227>,\n",
       " <message note_on channel=1 note=64 velocity=96 time=13>,\n",
       " <message note_on channel=1 note=64 velocity=0 time=227>,\n",
       " <message note_on channel=1 note=62 velocity=96 time=13>,\n",
       " <message note_on channel=1 note=62 velocity=0 time=227>,\n",
       " <message note_on channel=1 note=55 velocity=96 time=13>,\n",
       " <message note_on channel=1 note=55 velocity=0 time=227>,\n",
       " <message note_on channel=1 note=62 velocity=96 time=13>,\n",
       " <message note_on channel=1 note=62 velocity=0 time=227>,\n",
       " <message note_on channel=1 note=57 velocity=96 time=13>,\n",
       " <message note_on channel=1 note=57 velocity=0 time=227>,\n",
       " <message note_on channel=1 note=62 velocity=96 time=13>,\n",
       " <message note_on channel=1 note=62 velocity=0 time=227>,\n",
       " <message note_on channel=1 note=59 velocity=96 time=13>,\n",
       " <message note_on channel=1 note=59 velocity=0 time=227>,\n",
       " <message note_on channel=1 note=57 velocity=96 time=13>,\n",
       " <message note_on channel=1 note=57 velocity=0 time=227>,\n",
       " <message note_on channel=1 note=62 velocity=96 time=13>,\n",
       " <message note_on channel=1 note=62 velocity=0 time=227>,\n",
       " <message note_on channel=1 note=57 velocity=96 time=13>,\n",
       " <message note_on channel=1 note=57 velocity=0 time=227>,\n",
       " <message note_on channel=1 note=57 velocity=96 time=13>,\n",
       " <message note_on channel=1 note=57 velocity=0 time=227>,\n",
       " <message note_on channel=1 note=62 velocity=96 time=13>,\n",
       " <message note_on channel=1 note=62 velocity=0 time=227>,\n",
       " <message note_on channel=1 note=61 velocity=96 time=13>,\n",
       " <message note_on channel=1 note=61 velocity=0 time=227>,\n",
       " <message note_on channel=1 note=62 velocity=96 time=13>,\n",
       " <message note_on channel=1 note=62 velocity=0 time=227>,\n",
       " <message note_on channel=1 note=59 velocity=96 time=13>,\n",
       " <message note_on channel=1 note=59 velocity=0 time=227>,\n",
       " <message note_on channel=1 note=61 velocity=96 time=13>,\n",
       " <message note_on channel=1 note=61 velocity=0 time=227>,\n",
       " <message note_on channel=1 note=57 velocity=96 time=13>,\n",
       " <message note_on channel=1 note=57 velocity=0 time=227>,\n",
       " <message note_on channel=1 note=61 velocity=96 time=13>,\n",
       " <message note_on channel=1 note=61 velocity=0 time=227>,\n",
       " <message note_on channel=1 note=59 velocity=96 time=13>,\n",
       " <message note_on channel=1 note=59 velocity=0 time=227>,\n",
       " <message note_on channel=1 note=62 velocity=96 time=13>,\n",
       " <message note_on channel=1 note=62 velocity=0 time=227>,\n",
       " <message note_on channel=1 note=61 velocity=96 time=13>,\n",
       " <message note_on channel=1 note=61 velocity=0 time=227>,\n",
       " <message note_on channel=1 note=59 velocity=96 time=13>,\n",
       " <message note_on channel=1 note=59 velocity=0 time=227>,\n",
       " <message note_on channel=1 note=61 velocity=96 time=13>,\n",
       " <message note_on channel=1 note=61 velocity=0 time=227>,\n",
       " <message note_on channel=1 note=59 velocity=96 time=13>,\n",
       " <message note_on channel=1 note=59 velocity=0 time=227>,\n",
       " <message note_on channel=1 note=59 velocity=96 time=13>,\n",
       " <message note_on channel=1 note=59 velocity=0 time=227>,\n",
       " <message note_on channel=1 note=61 velocity=96 time=13>,\n",
       " <message note_on channel=1 note=61 velocity=0 time=227>,\n",
       " <message note_on channel=1 note=62 velocity=96 time=13>,\n",
       " <message note_on channel=1 note=62 velocity=0 time=227>,\n",
       " <message note_on channel=1 note=66 velocity=96 time=13>,\n",
       " <message note_on channel=1 note=66 velocity=0 time=227>,\n",
       " <message note_on channel=1 note=62 velocity=96 time=13>,\n",
       " <message note_on channel=1 note=62 velocity=0 time=227>,\n",
       " <message note_on channel=1 note=69 velocity=96 time=13>,\n",
       " <message note_on channel=1 note=69 velocity=0 time=227>,\n",
       " <message note_on channel=1 note=67 velocity=96 time=13>,\n",
       " <message note_on channel=1 note=67 velocity=0 time=227>,\n",
       " <message note_on channel=1 note=66 velocity=96 time=13>,\n",
       " <message note_on channel=1 note=66 velocity=0 time=227>,\n",
       " <message note_on channel=1 note=64 velocity=96 time=13>,\n",
       " <message note_on channel=1 note=64 velocity=0 time=227>,\n",
       " <message note_on channel=1 note=62 velocity=96 time=13>,\n",
       " <message note_on channel=1 note=62 velocity=0 time=227>,\n",
       " <message note_on channel=1 note=62 velocity=96 time=253>,\n",
       " <message note_on channel=1 note=62 velocity=0 time=455>,\n",
       " <message note_on channel=1 note=59 velocity=96 time=25>,\n",
       " <message note_on channel=1 note=59 velocity=0 time=455>,\n",
       " <message note_on channel=1 note=62 velocity=96 time=25>,\n",
       " <message note_on channel=1 note=62 velocity=0 time=911>,\n",
       " <message note_on channel=1 note=66 velocity=96 time=49>,\n",
       " <message note_on channel=1 note=66 velocity=0 time=455>,\n",
       " <message note_on channel=1 note=59 velocity=96 time=25>,\n",
       " <message note_on channel=1 note=59 velocity=0 time=455>,\n",
       " <message note_on channel=1 note=66 velocity=96 time=25>,\n",
       " <message note_on channel=1 note=66 velocity=0 time=911>,\n",
       " <message note_on channel=1 note=59 velocity=96 time=49>,\n",
       " <message note_on channel=1 note=59 velocity=0 time=455>,\n",
       " <message note_on channel=1 note=59 velocity=96 time=25>,\n",
       " <message note_on channel=1 note=59 velocity=0 time=455>,\n",
       " <message note_on channel=1 note=59 velocity=96 time=25>,\n",
       " <message note_on channel=1 note=59 velocity=0 time=911>,\n",
       " <message note_on channel=1 note=59 velocity=96 time=49>,\n",
       " <message note_on channel=1 note=59 velocity=0 time=227>,\n",
       " <message note_on channel=1 note=62 velocity=96 time=13>,\n",
       " <message note_on channel=1 note=62 velocity=0 time=227>,\n",
       " <message note_on channel=1 note=64 velocity=96 time=13>,\n",
       " <message note_on channel=1 note=64 velocity=0 time=227>,\n",
       " <message note_on channel=1 note=64 velocity=96 time=13>,\n",
       " <message note_on channel=1 note=64 velocity=0 time=227>,\n",
       " <message note_on channel=1 note=64 velocity=96 time=13>,\n",
       " <message note_on channel=1 note=64 velocity=0 time=227>,\n",
       " <message note_on channel=1 note=62 velocity=96 time=13>,\n",
       " <message note_on channel=1 note=62 velocity=0 time=227>,\n",
       " <message note_on channel=1 note=61 velocity=96 time=13>,\n",
       " <message note_on channel=1 note=61 velocity=0 time=227>,\n",
       " <message note_on channel=1 note=62 velocity=96 time=253>,\n",
       " <message note_on channel=1 note=62 velocity=0 time=455>,\n",
       " <message note_on channel=1 note=59 velocity=96 time=25>,\n",
       " <message note_on channel=1 note=59 velocity=0 time=455>,\n",
       " <message note_on channel=1 note=62 velocity=96 time=25>,\n",
       " <message note_on channel=1 note=62 velocity=0 time=911>,\n",
       " <message note_on channel=1 note=66 velocity=96 time=49>,\n",
       " <message note_on channel=1 note=66 velocity=0 time=455>,\n",
       " <message note_on channel=1 note=59 velocity=96 time=25>,\n",
       " <message note_on channel=1 note=59 velocity=0 time=455>,\n",
       " <message note_on channel=1 note=66 velocity=96 time=25>,\n",
       " <message note_on channel=1 note=66 velocity=0 time=911>,\n",
       " <message note_on channel=1 note=59 velocity=96 time=49>,\n",
       " <message note_on channel=1 note=59 velocity=0 time=455>,\n",
       " <message note_on channel=1 note=59 velocity=96 time=25>,\n",
       " <message note_on channel=1 note=59 velocity=0 time=455>,\n",
       " <message note_on channel=1 note=59 velocity=96 time=25>,\n",
       " <message note_on channel=1 note=59 velocity=0 time=911>,\n",
       " <message note_on channel=1 note=59 velocity=96 time=49>,\n",
       " <message note_on channel=1 note=59 velocity=0 time=227>,\n",
       " <message note_on channel=1 note=62 velocity=96 time=13>,\n",
       " <message note_on channel=1 note=62 velocity=0 time=227>,\n",
       " <message note_on channel=1 note=64 velocity=96 time=13>,\n",
       " <message note_on channel=1 note=64 velocity=0 time=227>,\n",
       " <message note_on channel=1 note=64 velocity=96 time=13>,\n",
       " <message note_on channel=1 note=64 velocity=0 time=227>,\n",
       " <message note_on channel=1 note=64 velocity=96 time=13>,\n",
       " <message note_on channel=1 note=64 velocity=0 time=227>,\n",
       " <message note_on channel=1 note=62 velocity=96 time=13>,\n",
       " <message note_on channel=1 note=62 velocity=0 time=227>,\n",
       " <message note_on channel=1 note=61 velocity=96 time=13>,\n",
       " <message note_on channel=1 note=61 velocity=0 time=227>,\n",
       " <message note_on channel=1 note=62 velocity=96 time=253>,\n",
       " <message note_on channel=1 note=62 velocity=0 time=455>,\n",
       " <message note_on channel=1 note=59 velocity=96 time=25>,\n",
       " <message note_on channel=1 note=59 velocity=0 time=455>,\n",
       " <message note_on channel=1 note=62 velocity=96 time=25>,\n",
       " <message note_on channel=1 note=62 velocity=0 time=911>,\n",
       " <message note_on channel=1 note=66 velocity=96 time=49>,\n",
       " <message note_on channel=1 note=66 velocity=0 time=455>,\n",
       " <message note_on channel=1 note=59 velocity=96 time=25>,\n",
       " <message note_on channel=1 note=59 velocity=0 time=455>,\n",
       " <message note_on channel=1 note=66 velocity=96 time=25>,\n",
       " <message note_on channel=1 note=66 velocity=0 time=911>,\n",
       " <message note_on channel=1 note=59 velocity=96 time=49>,\n",
       " <message note_on channel=1 note=59 velocity=0 time=455>,\n",
       " <message note_on channel=1 note=59 velocity=96 time=25>,\n",
       " <message note_on channel=1 note=59 velocity=0 time=455>,\n",
       " <message note_on channel=1 note=59 velocity=96 time=25>,\n",
       " <message note_on channel=1 note=59 velocity=0 time=911>,\n",
       " <message note_on channel=1 note=59 velocity=96 time=49>,\n",
       " <message note_on channel=1 note=59 velocity=0 time=227>,\n",
       " <message note_on channel=1 note=62 velocity=96 time=13>,\n",
       " <message note_on channel=1 note=62 velocity=0 time=227>,\n",
       " <message note_on channel=1 note=64 velocity=96 time=13>,\n",
       " <message note_on channel=1 note=64 velocity=0 time=227>,\n",
       " <message note_on channel=1 note=64 velocity=96 time=13>,\n",
       " <message note_on channel=1 note=64 velocity=0 time=227>,\n",
       " <message note_on channel=1 note=64 velocity=96 time=13>,\n",
       " <message note_on channel=1 note=64 velocity=0 time=227>,\n",
       " <message note_on channel=1 note=62 velocity=96 time=13>,\n",
       " <message note_on channel=1 note=62 velocity=0 time=227>,\n",
       " <message note_on channel=1 note=61 velocity=96 time=13>,\n",
       " <message note_on channel=1 note=61 velocity=0 time=227>,\n",
       " <message note_on channel=1 note=62 velocity=96 time=253>,\n",
       " <message note_on channel=1 note=62 velocity=0 time=455>,\n",
       " <message note_on channel=1 note=59 velocity=96 time=25>,\n",
       " <message note_on channel=1 note=59 velocity=0 time=455>,\n",
       " <message note_on channel=1 note=62 velocity=96 time=25>,\n",
       " <message note_on channel=1 note=62 velocity=0 time=911>,\n",
       " <message note_on channel=1 note=66 velocity=96 time=49>,\n",
       " <message note_on channel=1 note=66 velocity=0 time=455>,\n",
       " <message note_on channel=1 note=59 velocity=96 time=25>,\n",
       " <message note_on channel=1 note=59 velocity=0 time=455>,\n",
       " <message note_on channel=1 note=66 velocity=96 time=25>,\n",
       " <message note_on channel=1 note=66 velocity=0 time=683>,\n",
       " <message note_on channel=1 note=59 velocity=96 time=37>,\n",
       " <message note_on channel=1 note=59 velocity=0 time=3647>,\n",
       " <message note_on channel=1 note=59 velocity=96 time=193>,\n",
       " <message note_on channel=1 note=59 velocity=0 time=227>,\n",
       " <message note_on channel=1 note=59 velocity=96 time=13>,\n",
       " <message note_on channel=1 note=59 velocity=0 time=227>,\n",
       " <message note_on channel=1 note=59 velocity=96 time=13>,\n",
       " <message note_on channel=1 note=59 velocity=0 time=227>,\n",
       " <message note_on channel=1 note=59 velocity=96 time=13>,\n",
       " <message note_on channel=1 note=59 velocity=0 time=227>,\n",
       " <message note_on channel=1 note=59 velocity=96 time=13>,\n",
       " <message note_on channel=1 note=59 velocity=0 time=227>,\n",
       " <message note_on channel=1 note=59 velocity=96 time=13>,\n",
       " <message note_on channel=1 note=59 velocity=0 time=227>,\n",
       " <message note_on channel=1 note=59 velocity=96 time=13>,\n",
       " <message note_on channel=1 note=59 velocity=0 time=227>,\n",
       " <message note_on channel=1 note=59 velocity=96 time=13>,\n",
       " <message note_on channel=1 note=59 velocity=0 time=227>,\n",
       " <message note_on channel=1 note=61 velocity=96 time=13>,\n",
       " <message note_on channel=1 note=61 velocity=0 time=227>,\n",
       " <message note_on channel=1 note=61 velocity=96 time=13>,\n",
       " <message note_on channel=1 note=61 velocity=0 time=227>,\n",
       " <message note_on channel=1 note=61 velocity=96 time=13>,\n",
       " <message note_on channel=1 note=61 velocity=0 time=227>,\n",
       " <message note_on channel=1 note=61 velocity=96 time=13>,\n",
       " <message note_on channel=1 note=61 velocity=0 time=227>,\n",
       " <message note_on channel=1 note=61 velocity=96 time=13>,\n",
       " <message note_on channel=1 note=61 velocity=0 time=227>,\n",
       " <message note_on channel=1 note=61 velocity=96 time=13>,\n",
       " <message note_on channel=1 note=61 velocity=0 time=227>,\n",
       " <message note_on channel=1 note=61 velocity=96 time=13>,\n",
       " <message note_on channel=1 note=61 velocity=0 time=227>,\n",
       " <message note_on channel=1 note=61 velocity=96 time=13>,\n",
       " <message note_on channel=1 note=61 velocity=0 time=227>,\n",
       " <message note_on channel=1 note=62 velocity=96 time=13>,\n",
       " <message note_on channel=1 note=62 velocity=0 time=227>,\n",
       " <message note_on channel=1 note=62 velocity=96 time=13>,\n",
       " <message note_on channel=1 note=62 velocity=0 time=227>,\n",
       " <message note_on channel=1 note=62 velocity=96 time=13>,\n",
       " <message note_on channel=1 note=62 velocity=0 time=227>,\n",
       " <message note_on channel=1 note=62 velocity=96 time=13>,\n",
       " <message note_on channel=1 note=62 velocity=0 time=227>,\n",
       " <message note_on channel=1 note=62 velocity=96 time=13>,\n",
       " <message note_on channel=1 note=62 velocity=0 time=227>,\n",
       " <message note_on channel=1 note=62 velocity=96 time=13>,\n",
       " <message note_on channel=1 note=62 velocity=0 time=227>,\n",
       " <message note_on channel=1 note=62 velocity=96 time=13>,\n",
       " <message note_on channel=1 note=62 velocity=0 time=227>,\n",
       " <message note_on channel=1 note=62 velocity=96 time=13>,\n",
       " <message note_on channel=1 note=62 velocity=0 time=227>,\n",
       " <message note_on channel=1 note=61 velocity=96 time=13>,\n",
       " <message note_on channel=1 note=61 velocity=0 time=227>,\n",
       " <message note_on channel=1 note=61 velocity=96 time=13>,\n",
       " <message note_on channel=1 note=61 velocity=0 time=227>,\n",
       " <message note_on channel=1 note=61 velocity=96 time=13>,\n",
       " <message note_on channel=1 note=61 velocity=0 time=227>,\n",
       " <message note_on channel=1 note=61 velocity=96 time=13>,\n",
       " <message note_on channel=1 note=61 velocity=0 time=227>,\n",
       " <message note_on channel=1 note=61 velocity=96 time=13>,\n",
       " <message note_on channel=1 note=61 velocity=0 time=227>,\n",
       " <message note_on channel=1 note=61 velocity=96 time=13>,\n",
       " <message note_on channel=1 note=61 velocity=0 time=227>,\n",
       " <message note_on channel=1 note=61 velocity=96 time=13>,\n",
       " <message note_on channel=1 note=61 velocity=0 time=227>,\n",
       " <message note_on channel=1 note=61 velocity=96 time=13>,\n",
       " <message note_on channel=1 note=61 velocity=0 time=227>,\n",
       " <message note_on channel=1 note=59 velocity=96 time=13>,\n",
       " <message note_on channel=1 note=59 velocity=0 time=227>,\n",
       " <message note_on channel=1 note=59 velocity=96 time=13>,\n",
       " <message note_on channel=1 note=59 velocity=0 time=227>,\n",
       " <message note_on channel=1 note=59 velocity=96 time=13>,\n",
       " <message note_on channel=1 note=59 velocity=0 time=227>,\n",
       " <message note_on channel=1 note=59 velocity=96 time=13>,\n",
       " <message note_on channel=1 note=59 velocity=0 time=227>,\n",
       " <message note_on channel=1 note=59 velocity=96 time=13>,\n",
       " <message note_on channel=1 note=59 velocity=0 time=227>,\n",
       " <message note_on channel=1 note=59 velocity=96 time=13>,\n",
       " <message note_on channel=1 note=59 velocity=0 time=227>,\n",
       " <message note_on channel=1 note=59 velocity=96 time=13>,\n",
       " <message note_on channel=1 note=59 velocity=0 time=227>,\n",
       " <message note_on channel=1 note=59 velocity=96 time=13>,\n",
       " <message note_on channel=1 note=59 velocity=0 time=227>,\n",
       " <message note_on channel=1 note=61 velocity=96 time=13>,\n",
       " <message note_on channel=1 note=61 velocity=0 time=227>,\n",
       " <message note_on channel=1 note=61 velocity=96 time=13>,\n",
       " <message note_on channel=1 note=61 velocity=0 time=227>,\n",
       " <message note_on channel=1 note=61 velocity=96 time=13>,\n",
       " <message note_on channel=1 note=61 velocity=0 time=227>,\n",
       " <message note_on channel=1 note=61 velocity=96 time=13>,\n",
       " <message note_on channel=1 note=61 velocity=0 time=227>,\n",
       " <message note_on channel=1 note=61 velocity=96 time=13>,\n",
       " <message note_on channel=1 note=61 velocity=0 time=227>,\n",
       " <message note_on channel=1 note=61 velocity=96 time=13>,\n",
       " <message note_on channel=1 note=61 velocity=0 time=227>,\n",
       " <message note_on channel=1 note=61 velocity=96 time=13>,\n",
       " <message note_on channel=1 note=61 velocity=0 time=227>,\n",
       " <message note_on channel=1 note=61 velocity=96 time=13>,\n",
       " <message note_on channel=1 note=61 velocity=0 time=227>,\n",
       " <message note_on channel=1 note=62 velocity=96 time=13>,\n",
       " <message note_on channel=1 note=62 velocity=0 time=227>,\n",
       " <message note_on channel=1 note=62 velocity=96 time=13>,\n",
       " <message note_on channel=1 note=62 velocity=0 time=227>,\n",
       " <message note_on channel=1 note=62 velocity=96 time=13>,\n",
       " <message note_on channel=1 note=62 velocity=0 time=227>,\n",
       " <message note_on channel=1 note=62 velocity=96 time=13>,\n",
       " <message note_on channel=1 note=62 velocity=0 time=227>,\n",
       " <message note_on channel=1 note=62 velocity=96 time=13>,\n",
       " <message note_on channel=1 note=62 velocity=0 time=227>,\n",
       " <message note_on channel=1 note=62 velocity=96 time=13>,\n",
       " <message note_on channel=1 note=62 velocity=0 time=227>,\n",
       " <message note_on channel=1 note=62 velocity=96 time=13>,\n",
       " <message note_on channel=1 note=62 velocity=0 time=227>,\n",
       " <message note_on channel=1 note=62 velocity=96 time=13>,\n",
       " <message note_on channel=1 note=62 velocity=0 time=227>,\n",
       " <message note_on channel=1 note=66 velocity=96 time=13>,\n",
       " <message note_on channel=1 note=66 velocity=0 time=227>,\n",
       " <message note_on channel=1 note=66 velocity=96 time=13>,\n",
       " <message note_on channel=1 note=66 velocity=0 time=227>,\n",
       " <message note_on channel=1 note=66 velocity=96 time=13>,\n",
       " <message note_on channel=1 note=66 velocity=0 time=227>,\n",
       " <message note_on channel=1 note=66 velocity=96 time=13>,\n",
       " <message note_on channel=1 note=66 velocity=0 time=227>,\n",
       " <message note_on channel=1 note=66 velocity=96 time=13>,\n",
       " <message note_on channel=1 note=66 velocity=0 time=227>,\n",
       " <message note_on channel=1 note=66 velocity=96 time=13>,\n",
       " <message note_on channel=1 note=66 velocity=0 time=227>,\n",
       " <message note_on channel=1 note=66 velocity=96 time=13>,\n",
       " <message note_on channel=1 note=66 velocity=0 time=227>,\n",
       " <message note_on channel=1 note=66 velocity=96 time=13>,\n",
       " <message note_on channel=1 note=66 velocity=0 time=227>,\n",
       " <message note_on channel=1 note=59 velocity=96 time=13>,\n",
       " <message note_on channel=1 note=59 velocity=0 time=227>,\n",
       " <message note_on channel=1 note=59 velocity=96 time=13>,\n",
       " <message note_on channel=1 note=59 velocity=0 time=227>,\n",
       " <message note_on channel=1 note=59 velocity=96 time=13>,\n",
       " <message note_on channel=1 note=59 velocity=0 time=227>,\n",
       " <message note_on channel=1 note=59 velocity=96 time=13>,\n",
       " <message note_on channel=1 note=59 velocity=0 time=227>,\n",
       " <message note_on channel=1 note=59 velocity=96 time=13>,\n",
       " <message note_on channel=1 note=59 velocity=0 time=227>,\n",
       " <message note_on channel=1 note=59 velocity=96 time=13>,\n",
       " <message note_on channel=1 note=59 velocity=0 time=227>,\n",
       " <message note_on channel=1 note=59 velocity=96 time=13>,\n",
       " <message note_on channel=1 note=59 velocity=0 time=227>,\n",
       " <message note_on channel=1 note=59 velocity=96 time=13>,\n",
       " <message note_on channel=1 note=59 velocity=0 time=227>,\n",
       " <message note_on channel=1 note=61 velocity=96 time=13>,\n",
       " <message note_on channel=1 note=61 velocity=0 time=227>,\n",
       " <message note_on channel=1 note=61 velocity=96 time=13>,\n",
       " <message note_on channel=1 note=61 velocity=0 time=227>,\n",
       " <message note_on channel=1 note=61 velocity=96 time=13>,\n",
       " <message note_on channel=1 note=61 velocity=0 time=227>,\n",
       " <message note_on channel=1 note=61 velocity=96 time=13>,\n",
       " <message note_on channel=1 note=61 velocity=0 time=227>,\n",
       " <message note_on channel=1 note=61 velocity=96 time=13>,\n",
       " <message note_on channel=1 note=61 velocity=0 time=227>,\n",
       " <message note_on channel=1 note=61 velocity=96 time=13>,\n",
       " <message note_on channel=1 note=61 velocity=0 time=227>,\n",
       " <message note_on channel=1 note=61 velocity=96 time=13>,\n",
       " <message note_on channel=1 note=61 velocity=0 time=227>,\n",
       " <message note_on channel=1 note=61 velocity=96 time=13>,\n",
       " <message note_on channel=1 note=61 velocity=0 time=227>,\n",
       " <message note_on channel=1 note=62 velocity=96 time=13>,\n",
       " <message note_on channel=1 note=62 velocity=0 time=227>,\n",
       " <message note_on channel=1 note=62 velocity=96 time=13>,\n",
       " <message note_on channel=1 note=62 velocity=0 time=227>,\n",
       " <message note_on channel=1 note=62 velocity=96 time=13>,\n",
       " <message note_on channel=1 note=62 velocity=0 time=227>,\n",
       " <message note_on channel=1 note=62 velocity=96 time=13>,\n",
       " <message note_on channel=1 note=62 velocity=0 time=227>,\n",
       " <message note_on channel=1 note=62 velocity=96 time=13>,\n",
       " <message note_on channel=1 note=62 velocity=0 time=227>,\n",
       " <message note_on channel=1 note=62 velocity=96 time=13>,\n",
       " <message note_on channel=1 note=62 velocity=0 time=227>,\n",
       " <message note_on channel=1 note=62 velocity=96 time=13>,\n",
       " <message note_on channel=1 note=62 velocity=0 time=227>,\n",
       " <message note_on channel=1 note=62 velocity=96 time=13>,\n",
       " <message note_on channel=1 note=62 velocity=0 time=227>,\n",
       " <message note_on channel=1 note=61 velocity=96 time=13>,\n",
       " <message note_on channel=1 note=61 velocity=0 time=227>,\n",
       " <message note_on channel=1 note=61 velocity=96 time=13>,\n",
       " <message note_on channel=1 note=61 velocity=0 time=227>,\n",
       " <message note_on channel=1 note=61 velocity=96 time=13>,\n",
       " <message note_on channel=1 note=61 velocity=0 time=227>,\n",
       " <message note_on channel=1 note=61 velocity=96 time=13>,\n",
       " <message note_on channel=1 note=61 velocity=0 time=227>,\n",
       " <message note_on channel=1 note=61 velocity=96 time=13>,\n",
       " <message note_on channel=1 note=61 velocity=0 time=227>,\n",
       " <message note_on channel=1 note=61 velocity=96 time=13>,\n",
       " <message note_on channel=1 note=61 velocity=0 time=227>,\n",
       " <message note_on channel=1 note=61 velocity=96 time=13>,\n",
       " <message note_on channel=1 note=61 velocity=0 time=227>,\n",
       " <message note_on channel=1 note=61 velocity=96 time=13>,\n",
       " <message note_on channel=1 note=61 velocity=0 time=227>,\n",
       " <message note_on channel=1 note=59 velocity=96 time=13>,\n",
       " <message note_on channel=1 note=59 velocity=0 time=227>,\n",
       " <message note_on channel=1 note=59 velocity=96 time=13>,\n",
       " <message note_on channel=1 note=59 velocity=0 time=227>,\n",
       " <message note_on channel=1 note=59 velocity=96 time=13>,\n",
       " <message note_on channel=1 note=59 velocity=0 time=227>,\n",
       " <message note_on channel=1 note=59 velocity=96 time=13>,\n",
       " <message note_on channel=1 note=59 velocity=0 time=227>,\n",
       " <message note_on channel=1 note=59 velocity=96 time=13>,\n",
       " <message note_on channel=1 note=59 velocity=0 time=227>,\n",
       " <message note_on channel=1 note=59 velocity=96 time=13>,\n",
       " <message note_on channel=1 note=59 velocity=0 time=227>,\n",
       " <message note_on channel=1 note=59 velocity=96 time=13>,\n",
       " <message note_on channel=1 note=59 velocity=0 time=227>,\n",
       " <message note_on channel=1 note=59 velocity=96 time=13>,\n",
       " <message note_on channel=1 note=59 velocity=0 time=227>,\n",
       " <message note_on channel=1 note=61 velocity=96 time=13>,\n",
       " <message note_on channel=1 note=61 velocity=0 time=227>,\n",
       " <message note_on channel=1 note=61 velocity=96 time=13>,\n",
       " <message note_on channel=1 note=61 velocity=0 time=227>,\n",
       " <message note_on channel=1 note=61 velocity=96 time=13>,\n",
       " <message note_on channel=1 note=61 velocity=0 time=227>,\n",
       " <message note_on channel=1 note=61 velocity=96 time=13>,\n",
       " <message note_on channel=1 note=61 velocity=0 time=227>,\n",
       " <message note_on channel=1 note=61 velocity=96 time=13>,\n",
       " <message note_on channel=1 note=61 velocity=0 time=227>,\n",
       " <message note_on channel=1 note=61 velocity=96 time=13>,\n",
       " <message note_on channel=1 note=61 velocity=0 time=227>,\n",
       " <message note_on channel=1 note=61 velocity=96 time=13>,\n",
       " <message note_on channel=1 note=61 velocity=0 time=227>,\n",
       " <message note_on channel=1 note=61 velocity=96 time=13>,\n",
       " <message note_on channel=1 note=61 velocity=0 time=227>,\n",
       " <message note_on channel=1 note=62 velocity=96 time=13>,\n",
       " <message note_on channel=1 note=62 velocity=0 time=227>,\n",
       " <message note_on channel=1 note=62 velocity=96 time=13>,\n",
       " <message note_on channel=1 note=62 velocity=0 time=227>,\n",
       " <message note_on channel=1 note=62 velocity=96 time=13>,\n",
       " <message note_on channel=1 note=62 velocity=0 time=227>,\n",
       " <message note_on channel=1 note=62 velocity=96 time=13>,\n",
       " <message note_on channel=1 note=62 velocity=0 time=227>,\n",
       " <message note_on channel=1 note=62 velocity=96 time=13>,\n",
       " <message note_on channel=1 note=62 velocity=0 time=227>,\n",
       " <message note_on channel=1 note=62 velocity=96 time=13>,\n",
       " <message note_on channel=1 note=62 velocity=0 time=227>,\n",
       " <message note_on channel=1 note=62 velocity=96 time=13>,\n",
       " <message note_on channel=1 note=62 velocity=0 time=227>,\n",
       " <message note_on channel=1 note=62 velocity=96 time=13>,\n",
       " <message note_on channel=1 note=62 velocity=0 time=227>,\n",
       " <message note_on channel=1 note=55 velocity=96 time=1933>,\n",
       " <message note_on channel=1 note=55 velocity=0 time=227>,\n",
       " <message note_on channel=1 note=62 velocity=96 time=13>,\n",
       " <message note_on channel=1 note=62 velocity=0 time=227>,\n",
       " <message note_on channel=1 note=57 velocity=96 time=13>,\n",
       " <message note_on channel=1 note=57 velocity=0 time=227>,\n",
       " <message note_on channel=1 note=62 velocity=96 time=13>,\n",
       " <message note_on channel=1 note=62 velocity=0 time=227>,\n",
       " <message note_on channel=1 note=59 velocity=96 time=13>,\n",
       " <message note_on channel=1 note=59 velocity=0 time=227>,\n",
       " <message note_on channel=1 note=57 velocity=96 time=13>,\n",
       " <message note_on channel=1 note=57 velocity=0 time=227>,\n",
       " <message note_on channel=1 note=62 velocity=96 time=13>,\n",
       " <message note_on channel=1 note=62 velocity=0 time=227>,\n",
       " <message note_on channel=1 note=57 velocity=96 time=13>,\n",
       " <message note_on channel=1 note=57 velocity=0 time=227>,\n",
       " <message note_on channel=1 note=57 velocity=96 time=13>,\n",
       " <message note_on channel=1 note=57 velocity=0 time=227>,\n",
       " <message note_on channel=1 note=62 velocity=96 time=13>,\n",
       " <message note_on channel=1 note=62 velocity=0 time=227>,\n",
       " <message note_on channel=1 note=61 velocity=96 time=13>,\n",
       " <message note_on channel=1 note=61 velocity=0 time=227>,\n",
       " <message note_on channel=1 note=62 velocity=96 time=13>,\n",
       " <message note_on channel=1 note=62 velocity=0 time=227>,\n",
       " <message note_on channel=1 note=59 velocity=96 time=13>,\n",
       " <message note_on channel=1 note=59 velocity=0 time=227>,\n",
       " <message note_on channel=1 note=61 velocity=96 time=13>,\n",
       " <message note_on channel=1 note=61 velocity=0 time=227>,\n",
       " <message note_on channel=1 note=57 velocity=96 time=13>,\n",
       " <message note_on channel=1 note=57 velocity=0 time=227>,\n",
       " <message note_on channel=1 note=61 velocity=96 time=13>,\n",
       " <message note_on channel=1 note=61 velocity=0 time=227>,\n",
       " <message note_on channel=1 note=59 velocity=96 time=13>,\n",
       " <message note_on channel=1 note=59 velocity=0 time=227>,\n",
       " <message note_on channel=1 note=62 velocity=96 time=13>,\n",
       " <message note_on channel=1 note=62 velocity=0 time=227>,\n",
       " <message note_on channel=1 note=61 velocity=96 time=13>,\n",
       " <message note_on channel=1 note=61 velocity=0 time=227>,\n",
       " <message note_on channel=1 note=59 velocity=96 time=13>,\n",
       " <message note_on channel=1 note=59 velocity=0 time=227>,\n",
       " <message note_on channel=1 note=61 velocity=96 time=13>,\n",
       " <message note_on channel=1 note=61 velocity=0 time=227>,\n",
       " <message note_on channel=1 note=59 velocity=96 time=13>,\n",
       " <message note_on channel=1 note=59 velocity=0 time=227>,\n",
       " <message note_on channel=1 note=59 velocity=96 time=13>,\n",
       " <message note_on channel=1 note=59 velocity=0 time=227>,\n",
       " <message note_on channel=1 note=61 velocity=96 time=13>,\n",
       " <message note_on channel=1 note=61 velocity=0 time=227>,\n",
       " <message note_on channel=1 note=62 velocity=96 time=13>,\n",
       " <message note_on channel=1 note=62 velocity=0 time=227>,\n",
       " <message note_on channel=1 note=66 velocity=96 time=13>,\n",
       " <message note_on channel=1 note=66 velocity=0 time=227>,\n",
       " <message note_on channel=1 note=62 velocity=96 time=13>,\n",
       " <message note_on channel=1 note=62 velocity=0 time=227>,\n",
       " <message note_on channel=1 note=69 velocity=96 time=13>,\n",
       " <message note_on channel=1 note=69 velocity=0 time=227>,\n",
       " <message note_on channel=1 note=67 velocity=96 time=13>,\n",
       " <message note_on channel=1 note=67 velocity=0 time=227>,\n",
       " <message note_on channel=1 note=66 velocity=96 time=13>,\n",
       " <message note_on channel=1 note=66 velocity=0 time=227>,\n",
       " <message note_on channel=1 note=64 velocity=96 time=13>,\n",
       " <message note_on channel=1 note=64 velocity=0 time=227>,\n",
       " <message note_on channel=1 note=62 velocity=96 time=13>,\n",
       " <message note_on channel=1 note=62 velocity=0 time=227>,\n",
       " <message note_on channel=1 note=55 velocity=96 time=13>,\n",
       " <message note_on channel=1 note=55 velocity=0 time=227>,\n",
       " <message note_on channel=1 note=62 velocity=96 time=13>,\n",
       " <message note_on channel=1 note=62 velocity=0 time=227>,\n",
       " <message note_on channel=1 note=57 velocity=96 time=13>,\n",
       " <message note_on channel=1 note=57 velocity=0 time=227>,\n",
       " <message note_on channel=1 note=62 velocity=96 time=13>,\n",
       " <message note_on channel=1 note=62 velocity=0 time=227>,\n",
       " <message note_on channel=1 note=59 velocity=96 time=13>,\n",
       " <message note_on channel=1 note=59 velocity=0 time=227>,\n",
       " <message note_on channel=1 note=57 velocity=96 time=13>,\n",
       " <message note_on channel=1 note=57 velocity=0 time=227>,\n",
       " <message note_on channel=1 note=62 velocity=96 time=13>,\n",
       " <message note_on channel=1 note=62 velocity=0 time=227>,\n",
       " <message note_on channel=1 note=57 velocity=96 time=13>,\n",
       " <message note_on channel=1 note=57 velocity=0 time=227>,\n",
       " <message note_on channel=1 note=57 velocity=96 time=13>,\n",
       " <message note_on channel=1 note=57 velocity=0 time=227>,\n",
       " <message note_on channel=1 note=62 velocity=96 time=13>,\n",
       " <message note_on channel=1 note=62 velocity=0 time=227>,\n",
       " <message note_on channel=1 note=61 velocity=96 time=13>,\n",
       " <message note_on channel=1 note=61 velocity=0 time=227>,\n",
       " <message note_on channel=1 note=62 velocity=96 time=13>,\n",
       " <message note_on channel=1 note=62 velocity=0 time=227>,\n",
       " <message note_on channel=1 note=59 velocity=96 time=13>,\n",
       " <message note_on channel=1 note=59 velocity=0 time=227>,\n",
       " <message note_on channel=1 note=61 velocity=96 time=13>,\n",
       " <message note_on channel=1 note=61 velocity=0 time=227>,\n",
       " <message note_on channel=1 note=57 velocity=96 time=13>,\n",
       " <message note_on channel=1 note=57 velocity=0 time=227>,\n",
       " <message note_on channel=1 note=61 velocity=96 time=13>,\n",
       " <message note_on channel=1 note=61 velocity=0 time=227>,\n",
       " <message note_on channel=1 note=59 velocity=96 time=13>,\n",
       " <message note_on channel=1 note=59 velocity=0 time=227>,\n",
       " <message note_on channel=1 note=62 velocity=96 time=13>,\n",
       " <message note_on channel=1 note=62 velocity=0 time=227>,\n",
       " <message note_on channel=1 note=61 velocity=96 time=13>,\n",
       " <message note_on channel=1 note=61 velocity=0 time=227>,\n",
       " <message note_on channel=1 note=59 velocity=96 time=13>,\n",
       " <message note_on channel=1 note=59 velocity=0 time=227>,\n",
       " <message note_on channel=1 note=61 velocity=96 time=13>,\n",
       " <message note_on channel=1 note=61 velocity=0 time=227>,\n",
       " <message note_on channel=1 note=59 velocity=96 time=13>,\n",
       " <message note_on channel=1 note=59 velocity=0 time=227>,\n",
       " <message note_on channel=1 note=59 velocity=96 time=13>,\n",
       " <message note_on channel=1 note=59 velocity=0 time=227>,\n",
       " <message note_on channel=1 note=61 velocity=96 time=13>,\n",
       " <message note_on channel=1 note=61 velocity=0 time=227>,\n",
       " <message note_on channel=1 note=62 velocity=96 time=13>,\n",
       " <message note_on channel=1 note=62 velocity=0 time=227>,\n",
       " <message note_on channel=1 note=66 velocity=96 time=13>,\n",
       " <message note_on channel=1 note=66 velocity=0 time=227>,\n",
       " <message note_on channel=1 note=62 velocity=96 time=13>,\n",
       " <message note_on channel=1 note=62 velocity=0 time=227>,\n",
       " <message note_on channel=1 note=69 velocity=96 time=13>,\n",
       " <message note_on channel=1 note=69 velocity=0 time=227>,\n",
       " <message note_on channel=1 note=67 velocity=96 time=13>,\n",
       " <message note_on channel=1 note=67 velocity=0 time=227>,\n",
       " <message note_on channel=1 note=66 velocity=96 time=13>,\n",
       " <message note_on channel=1 note=66 velocity=0 time=227>,\n",
       " <message note_on channel=1 note=64 velocity=96 time=13>,\n",
       " <message note_on channel=1 note=64 velocity=0 time=227>,\n",
       " <message note_on channel=1 note=62 velocity=96 time=13>,\n",
       " <message note_on channel=1 note=62 velocity=0 time=227>,\n",
       " <message note_on channel=1 note=59 velocity=96 time=13>,\n",
       " <message note_on channel=1 note=59 velocity=0 time=341>,\n",
       " <message note_on channel=1 note=59 velocity=96 time=19>,\n",
       " <message note_on channel=1 note=59 velocity=0 time=341>,\n",
       " ...]"
      ]
     },
     "execution_count": 91,
     "metadata": {},
     "output_type": "execute_result"
    }
   ],
   "source": [
    "list(track)"
   ]
  },
  {
   "cell_type": "code",
   "execution_count": null,
   "metadata": {},
   "outputs": [],
   "source": []
  }
 ],
 "metadata": {
  "kernelspec": {
   "display_name": "Python 3",
   "language": "python",
   "name": "python3"
  },
  "language_info": {
   "codemirror_mode": {
    "name": "ipython",
    "version": 3
   },
   "file_extension": ".py",
   "mimetype": "text/x-python",
   "name": "python",
   "nbconvert_exporter": "python",
   "pygments_lexer": "ipython3",
   "version": "3.6.8"
  }
 },
 "nbformat": 4,
 "nbformat_minor": 2
}
